<svg width="294" height="182" viewBox="0 0 294 182" fill="none" xmlns="http://www.w3.org/2000/svg">
<g clip-path="url(#clip0_1_11)">
<path d="M293.831 114.029C292.088 110.079 288.912 106.791 285.404 104.089C283.554 102.664 281.498 101.231 280.059 99.4706C278.742 97.8565 279.508 95.4034 281.597 94.5562L287.58 92.1299C288.275 91.8461 289.019 91.5294 289.087 90.5568C289.101 90.2768 289.056 89.997 288.953 89.736C288.851 89.4751 288.694 89.239 288.493 89.0434C285.188 85.6877 276.68 85.2887 269.689 87.5465C266.242 88.6569 263.163 90.4149 261.261 92.7837C260.204 94.0547 259.531 95.6001 259.319 97.2396C259.13 98.8044 260.517 100.497 262.147 100.102C262.969 99.8963 263.693 99.2341 264.634 99.9579C265.065 100.295 265.347 100.786 265.422 101.327L266.939 111.107C267.253 113.138 267.666 115.353 269.759 116.332C270.272 116.571 270.844 116.653 271.403 116.568C271.962 116.484 272.484 116.236 272.904 115.857C274.653 114.212 272.515 112.024 273.913 110.402C274.193 110.096 274.543 109.864 274.933 109.725C275.323 109.586 275.742 109.544 276.152 109.604C277.773 109.809 278.779 110.953 279.8 111.989C282.883 115.119 287.484 117.629 291.928 117.072C293.449 116.883 294.405 115.328 293.831 114.029Z" fill="#191818"/>
<path d="M257.07 56.2814C263.938 64.4714 263.309 78.9288 269.681 87.5465C266.234 88.6569 263.155 90.415 261.253 92.7838C258.824 89.0826 257.942 84.0715 257.461 79.2908C256.926 73.9836 256.706 68.4687 254.756 63.6838C253.132 59.703 250.285 56.5528 246.959 54.766C246.632 53.0654 246.26 51.297 245.738 49.4485C249.894 50.7871 254.018 52.6377 257.07 56.2814Z" fill="#544846"/>
<path d="M213.176 156.836C213.732 158.447 214.174 160.097 214.498 161.771C214.468 161.746 214.434 161.727 214.397 161.715C214.297 161.698 214.194 161.715 214.105 161.765C212.872 162.272 210.249 162.793 209.439 163.95C209.291 164.172 209.186 164.421 209.131 164.682C206.003 156.345 201.608 148.54 196.101 141.543C196.351 141.478 196.604 141.41 196.855 141.338C199.769 140.54 202.639 139.592 205.455 138.498C208.514 144.395 211.096 150.527 213.176 156.836Z" fill="#544846"/>
<path d="M216.932 165.918C216.231 164.547 215.458 163.215 214.615 161.927C214.58 161.87 214.538 161.817 214.49 161.771C214.46 161.746 214.426 161.727 214.389 161.715C214.289 161.698 214.186 161.715 214.097 161.765C212.864 162.272 210.241 162.793 209.431 163.95C209.282 164.172 209.178 164.421 209.123 164.682C208.788 166.122 209.388 168.32 209.488 169.541C209.56 170.434 209.651 171.375 210.171 172.103C210.788 172.967 211.867 173.337 212.886 173.633C213.414 172.817 213.833 171.936 214.134 171.011L215.46 172.893C216.716 171.992 217.797 170.662 217.871 169.118C217.933 167.993 217.45 166.922 216.932 165.918Z" fill="#191818"/>
<path d="M178.106 167.444C177.657 169.088 177.092 170.699 176.417 172.264C176.407 172.226 176.389 172.191 176.365 172.161C176.292 172.091 176.198 172.048 176.098 172.037C174.793 171.764 172.335 170.711 171.011 171.215C170.765 171.315 170.539 171.46 170.347 171.643C172.442 163.058 173.213 154.203 172.633 145.385C175.921 145.109 179.194 144.753 182.448 144.284C181.733 152.124 180.279 159.878 178.106 167.444Z" fill="#544846"/>
<path d="M176.417 172.264C176.407 172.226 176.389 172.191 176.365 172.161C176.292 172.091 176.198 172.048 176.098 172.037C174.793 171.764 172.335 170.711 171.011 171.215C170.765 171.315 170.539 171.46 170.347 171.643C169.261 172.64 168.513 174.799 167.907 175.866C167.465 176.646 167.011 177.472 167.029 178.367C167.05 179.428 167.73 180.349 168.41 181.163C169.306 180.785 170.149 180.293 170.918 179.699C170.928 180.467 170.939 181.234 170.953 182.002C172.497 181.967 174.141 181.478 175.064 180.244C175.743 179.345 175.948 178.188 176.092 177.069C176.286 175.542 176.398 174.005 176.427 172.465C176.433 172.398 176.43 172.33 176.417 172.264Z" fill="#191818"/>
<path d="M121.653 15.171C121.419 11.7864 120.636 8.38537 119.598 5.14473C119.067 3.49974 118.401 1.76015 116.946 0.719692C111.891 -2.89312 104.769 8.12218 102.833 11.2744C101.465 13.4662 100.455 15.8614 99.8397 18.3705C99.3288 20.4547 99.1979 22.6141 99.4533 24.7448C99.531 25.5745 99.758 26.3832 100.123 27.1321C100.49 27.7859 100.978 28.3632 101.562 28.8326C104.269 31.1109 108.193 31.4831 111.819 31.4276C113.532 31.4009 115.33 31.2796 116.771 30.3995C117.99 29.6572 118.81 28.4584 119.443 27.2287C121.388 23.4946 121.939 19.3513 121.653 15.171ZM116.551 20.6919C116.422 22.1128 115.961 23.7475 115.577 25.1211C115.193 26.4947 114.399 27.8292 113.137 28.4954C111.76 29.2254 110.099 29.0485 108.557 28.8347C107.016 28.6208 105.344 28.3268 104.288 27.1897C103.56 26.396 103.24 25.2918 103.238 24.2143C103.272 23.1361 103.497 22.0725 103.901 21.0724C104.383 19.747 104.961 18.459 105.632 17.219C106.625 15.3951 107.852 13.6966 109.332 12.3703C110.202 11.5972 111.735 10.602 112.89 10.3409C114.65 9.94194 115.815 11.7062 116.206 13.1435C116.429 13.9716 116.577 14.8181 116.65 15.6727C116.808 17.3177 116.705 18.977 116.551 20.6919Z" fill="#544846"/>
<path d="M116.66 15.6624C116.808 17.3177 116.705 18.977 116.551 20.6919C116.422 22.1128 115.961 23.7475 115.577 25.1211C115.193 26.4947 114.399 27.8292 113.137 28.4954C111.76 29.2254 110.099 29.0485 108.557 28.8347C107.016 28.6208 105.344 28.3268 104.288 27.1897C103.56 26.396 103.24 25.2918 103.238 24.2143C103.272 23.1361 103.497 22.0725 103.901 21.0724C104.383 19.747 104.961 18.459 105.632 17.219C109.281 16.5651 112.962 16.0654 116.66 15.6624Z" fill="#C6B9AA"/>
<path d="M116.21 13.1332C116.433 13.9614 116.582 14.8078 116.654 15.6624C112.954 16.0737 109.275 16.5651 105.626 17.2087C106.619 15.3848 107.846 13.6864 109.326 12.3601C110.196 11.587 111.729 10.5917 112.884 10.3306C114.66 9.93167 115.826 11.6959 116.21 13.1332Z" fill="#C6B9AA"/>
<path d="M98.3124 164.382C98.409 166.084 98.3849 167.79 98.2405 169.488C98.2197 169.456 98.1924 169.428 98.1603 169.408C98.0684 169.365 97.9651 169.354 97.8664 169.377C96.5426 169.533 93.8766 169.313 92.781 170.212C92.5785 170.384 92.411 170.593 92.2876 170.828C91.5905 162.489 89.6871 154.294 86.637 146.501C89.0351 146.719 91.438 146.894 93.8457 147.025C94.6844 147.071 95.5224 147.11 96.3597 147.143C97.4115 152.837 98.0641 158.597 98.3124 164.382Z" fill="#544846"/>
<path d="M99.4636 174.145C99.1628 172.635 98.7813 171.142 98.3207 169.673C98.3025 169.608 98.2755 169.546 98.2405 169.488C98.2197 169.456 98.1924 169.428 98.1603 169.408C98.0684 169.365 97.9651 169.354 97.8664 169.377C96.5426 169.533 93.8766 169.313 92.781 170.212C92.5785 170.384 92.411 170.593 92.2877 170.829C91.5723 172.116 91.5497 174.402 91.3154 175.605C91.1427 176.483 90.9742 177.413 91.2763 178.256C91.634 179.255 92.5693 179.913 93.4737 180.468C94.203 179.826 94.8456 179.091 95.3854 178.282L96.15 180.456C97.6033 179.932 99.0072 178.944 99.4964 177.478C99.8541 176.424 99.6815 175.249 99.4636 174.145Z" fill="#191818"/>
<path d="M87.3173 101.716C89.0399 101.196 90.6309 103.433 90.0224 105.5C89.453 107.439 88.1848 109.141 86.9391 110.523C80.6471 117.459 73.206 122.78 65.1216 126.13C62.9242 127.041 60.6323 127.814 58.2479 127.627C56.9428 127.522 55.6808 127.111 54.5646 126.426C53.4484 125.742 52.5095 124.803 51.8243 123.687C50.3032 121.22 50.0956 117.467 51.7339 115.489C55.1769 111.331 63.0558 112.186 67.578 110.868C73.6058 109.099 79.3507 106.479 84.639 103.088C85.4715 102.553 86.3862 102 87.3173 101.716Z" fill="white"/>
<path d="M82.604 13.0489C84.3882 15.9564 85.6523 19.2176 86.01 22.5425C84.6533 23.071 83.3049 23.6426 81.975 24.2554C81.8561 23.7743 81.7093 23.3006 81.5351 22.8366C80.3758 19.6741 78.608 16.3718 76.0941 14.1346C75.2246 13.3614 73.6912 12.3662 72.536 12.105C70.7764 11.7061 69.6109 13.4704 69.2204 14.9077C68.5379 17.4163 68.651 19.8777 68.8853 22.4665C69.0148 23.8873 69.4752 25.5221 69.8596 26.8956C70.1947 28.0821 70.8298 29.2418 71.8124 29.9635C70.7558 30.6791 69.7233 31.4248 68.7147 32.2007L68.6756 32.1781C67.4567 31.4358 66.6365 30.237 66.0034 29.0074C62.4761 22.2403 63.5368 14.1387 65.8452 6.91921C66.3755 5.27421 67.0415 3.53463 68.4968 2.49417C73.5452 -1.1207 80.6677 9.8946 82.604 13.0489Z" fill="#544846"/>
<path d="M81.5352 22.8367C81.7093 23.3006 81.8562 23.7743 81.975 24.2554C78.4358 25.8743 75.0367 27.7836 71.8124 29.9636C70.8299 29.2418 70.1947 28.0821 69.8597 26.8957C69.4753 25.5221 69.0148 23.8874 68.8854 22.4665C68.651 19.8777 68.538 17.4164 69.2204 14.9078C69.611 13.4684 70.7764 11.7062 72.536 12.1051C73.6912 12.3662 75.2246 13.3615 76.0941 14.1346C78.608 16.3718 80.3758 19.6742 81.5352 22.8367Z" fill="#C6B9AA"/>
<path d="M67.3107 162.933C66.4065 164.379 65.4023 165.76 64.3055 167.066C64.3086 167.027 64.3023 166.988 64.287 166.952C64.239 166.86 64.1605 166.788 64.065 166.747C62.8934 166.109 60.8419 164.392 59.4298 164.485C59.1653 164.508 58.9077 164.582 58.6713 164.703C62.4974 158.195 65.4538 151.212 67.4649 143.935C70.54 144.463 73.6233 144.938 76.7148 145.36C74.0553 151.46 70.9105 157.336 67.3107 162.933Z" fill="#544846"/>
<path d="M64.2871 166.952C64.239 166.86 64.1605 166.788 64.065 166.747C62.8934 166.109 60.842 164.392 59.4298 164.485C59.1653 164.508 58.9077 164.582 58.6713 164.703C57.3434 165.342 55.9991 167.197 55.1194 168.046C54.4739 168.663 53.7997 169.325 53.5592 170.189C53.2755 171.217 53.662 172.288 54.0792 173.263C55.0453 173.158 55.9939 172.93 56.9015 172.582L56.2725 174.797C57.7628 175.208 59.4771 175.208 60.7228 174.299C61.6293 173.633 62.1616 172.582 62.618 171.554C63.244 170.146 63.793 168.704 64.2624 167.236C64.285 167.17 64.2988 167.101 64.3035 167.031C64.3024 167.004 64.2969 166.977 64.2871 166.952Z" fill="#191818"/>
<path d="M247.615 58.2616C247.393 57.1244 247.187 55.9606 246.957 54.7659C246.63 53.0654 246.258 51.297 245.736 49.4485C244.091 43.6231 240.951 36.9795 233.018 28.9601C226.582 22.4583 218.853 20.3506 213.943 18.7118C185.977 9.3744 161.249 12.5657 131.826 14.4204C128.44 14.626 125.043 14.8707 121.653 15.1709C121.939 19.3513 121.388 23.4946 119.439 27.2328C118.8 28.4666 117.98 29.6613 116.767 30.4036C115.328 31.2796 113.528 31.4009 111.815 31.4317C108.189 31.4872 104.265 31.115 101.558 28.8367C100.974 28.3672 100.486 27.79 100.119 27.1362C99.7539 26.3873 99.5269 25.5786 99.4491 24.7489C99.1938 22.6182 99.3247 20.4588 99.8356 18.3746C95.2921 19.384 90.8269 20.7185 86.4745 22.3678L86.0141 22.5467C84.6575 23.0751 83.309 23.6468 81.9791 24.2595C78.4399 25.8784 75.0407 27.7876 71.8165 29.9676C70.76 30.6832 69.7274 31.4289 68.7188 32.2048C61.8327 37.4976 56.1307 44.1639 52.6691 52.1031C48.8972 60.7537 47.9702 70.3502 45.2507 79.3874C42.7039 87.855 37.9268 96.4212 30.0808 100.223C29.5546 100.478 29.0119 100.713 28.4569 100.924C25.1886 102.158 20.4197 101.626 16.1956 101.866C22.4691 103.079 27.312 109.133 27.7066 116.57C27.7251 116.906 27.7354 117.243 27.7354 117.584C27.7354 124.588 23.8032 130.538 18.3375 132.677C19.6078 133.072 20.8987 133.407 22.1649 133.728C37.1703 137.53 52.2292 141.336 67.4587 143.953C70.5338 144.481 73.6171 144.956 76.7087 145.378C80.0085 145.827 83.3172 146.203 86.6349 146.507C89.033 146.725 91.4359 146.9 93.8437 147.032C94.6823 147.077 95.5203 147.116 96.3576 147.149C105.351 147.523 114.36 147.301 123.361 147.079L148.675 146.462C156.653 146.256 164.676 146.063 172.631 145.393C175.919 145.117 179.192 144.761 182.446 144.293C187.047 143.65 191.606 142.736 196.099 141.554C196.349 141.488 196.602 141.42 196.853 141.348C199.767 140.55 202.637 139.602 205.453 138.508C217.83 133.689 229.119 125.92 236.268 114.837C248.227 96.2917 251.833 79.9179 247.615 58.2616ZM90.0224 105.5C89.453 107.439 88.1848 109.141 86.9391 110.523C80.6471 117.459 73.206 122.78 65.1216 126.13C62.9242 127.041 60.6323 127.814 58.2479 127.627C56.9428 127.522 55.6808 127.111 54.5646 126.426C53.4484 125.742 52.5095 124.803 51.8243 123.687C50.3032 121.22 50.0956 117.467 51.7338 115.489C55.1769 111.331 63.0558 112.186 67.578 110.868C73.6058 109.099 79.3507 106.479 84.639 103.088C85.4735 102.553 86.3882 102 87.3112 101.716C89.0399 101.196 90.6309 103.427 90.0224 105.5Z" fill="#695E5B"/>
<path d="M30.0828 100.219C29.5566 100.474 29.014 100.709 28.459 100.92C25.1907 102.154 20.4218 101.621 16.1977 101.862C15.5574 101.741 14.9085 101.673 14.2572 101.656C11.9042 96.9863 10.1321 92.0454 8.98066 86.9441C8.56955 85.1263 8.2941 83.0187 8.74632 81.0508C9.23143 78.9494 11.7145 77.7794 12.9581 79.0789C13.6323 79.7822 14.1586 80.7136 14.6252 81.5875C17.5716 87.1404 21.2962 92.2435 25.686 96.742C26.8125 97.8915 28.4179 99.0183 30.0828 100.219Z" fill="#B7B7B7"/>
<path d="M20.9686 115.678C21.2831 117.045 21.2276 118.577 20.5945 119.825C19.1289 122.721 16.2347 122.525 15.6139 119.266C15.3851 118.2 15.4048 117.095 15.6714 116.038C15.9613 114.991 16.6046 114.033 17.4844 113.57C17.9136 113.334 18.4084 113.244 18.8933 113.314C19.3783 113.385 19.8269 113.612 20.171 113.961C20.5798 114.455 20.8544 115.047 20.9686 115.678Z" fill="#191818"/>
<path d="M27.7128 116.566C27.3017 109.129 22.465 103.075 16.2018 101.862C15.5616 101.741 14.9127 101.673 14.2614 101.656C14.136 101.656 14.0086 101.656 13.8811 101.656C6.22011 101.656 0.0102997 108.794 0.0102997 117.596C0.0102997 126.399 6.22011 133.536 13.8811 133.536C15.4119 133.537 16.9291 133.249 18.354 132.689C23.8196 130.551 27.7519 124.6 27.7519 117.596C27.7416 117.239 27.7313 116.901 27.7128 116.566ZM4.89633 119.825C4.26528 118.577 4.20979 117.045 4.52429 115.678C4.63801 115.048 4.91195 114.457 5.31978 113.963C5.49514 113.776 5.7044 113.624 5.93644 113.515C6.26375 113.363 6.62172 113.29 6.98228 113.3C7.34284 113.31 7.69617 113.403 8.01459 113.572C8.89642 114.033 9.53774 114.991 9.82963 116.04C10.0942 117.098 10.1139 118.202 9.88719 119.268C9.47608 121.378 8.1297 122.205 6.82648 121.736C6.10499 121.485 5.41637 120.847 4.89221 119.825H4.89633ZM20.5986 119.825C19.133 122.721 16.2388 122.525 15.618 119.266C15.3893 118.2 15.409 117.095 15.6756 116.038C15.9654 114.991 16.6088 114.033 17.4886 113.57C17.9178 113.334 18.4125 113.244 18.8975 113.314C19.3824 113.385 19.8311 113.612 20.1752 113.961C20.5836 114.455 20.8582 115.045 20.9727 115.676C21.2831 117.045 21.2276 118.577 20.5945 119.825H20.5986Z" fill="#C68FBF"/>
<path d="M9.81727 116.038C9.52538 114.991 8.88404 114.033 8.00221 113.57C7.68379 113.401 7.33045 113.307 6.9699 113.297C6.60934 113.287 6.25137 113.361 5.92406 113.513C5.69201 113.622 5.48276 113.774 5.3074 113.961C4.89957 114.455 4.62563 115.045 4.5119 115.676C4.19741 117.043 4.25292 118.575 4.88397 119.823C5.40197 120.851 6.09673 121.483 6.8059 121.734C8.10911 122.2 9.46577 121.374 9.8666 119.266C10.096 118.2 10.0791 117.096 9.81727 116.038Z" fill="#191818"/>
<path d="M50.5828 64.1095C54.7741 64.1095 58.1718 60.7106 58.1718 56.5179C58.1718 52.3251 54.7741 48.9262 50.5828 48.9262C46.3914 48.9262 42.9937 52.3251 42.9937 56.5179C42.9937 60.7106 46.3914 64.1095 50.5828 64.1095Z" fill="white"/>
<path d="M52.5399 59.1779C53.7747 59.1779 54.7757 58.1781 54.7757 56.9448C54.7757 55.7115 53.7747 54.7117 52.5399 54.7117C51.3052 54.7117 50.3042 55.7115 50.3042 56.9448C50.3042 58.1781 51.3052 59.1779 52.5399 59.1779Z" fill="#1D1D1B"/>
<path d="M70.3694 70.2782C74.5607 70.2782 77.9585 66.8793 77.9585 62.6866C77.9585 58.4938 74.5607 55.0949 70.3694 55.0949C66.1781 55.0949 62.7804 58.4938 62.7804 62.6866C62.7804 66.8793 66.1781 70.2782 70.3694 70.2782Z" fill="white"/>
<path d="M73.7795 64.7607C75.0142 64.7607 76.0152 63.7609 76.0152 62.5276C76.0152 61.2943 75.0142 60.2945 73.7795 60.2945C72.5447 60.2945 71.5437 61.2943 71.5437 62.5276C71.5437 63.7609 72.5447 64.7607 73.7795 64.7607Z" fill="#1D1D1B"/>
<path d="M44.8396 127.787C44.8748 127.296 44.7136 126.812 44.3915 126.44C44.0694 126.068 43.6128 125.839 43.1222 125.804C42.6315 125.769 42.147 125.93 41.7752 126.252C41.4034 126.574 41.1748 127.031 41.1396 127.522C40.8477 131.595 38.5167 135.336 35.4725 136.594C35.2778 136.675 35.0984 136.789 34.9422 136.931C36.5866 137.343 38.231 137.744 39.8755 138.136C42.6607 135.735 44.5415 131.926 44.8396 127.787Z" fill="#191818"/>
<path d="M185.455 37.6539C185.21 37.6539 184.972 37.566 184.786 37.406C184.599 37.246 184.476 37.0246 184.439 36.7818C184.402 36.5389 184.453 36.2908 184.583 36.0823C184.712 35.8737 184.913 35.7186 185.147 35.6449C188.77 34.4914 192.116 32.6013 194.974 30.0931C195.075 30 195.193 29.928 195.322 29.8812C195.451 29.8345 195.588 29.814 195.725 29.821C195.861 29.828 195.996 29.8623 196.119 29.9219C196.242 29.9815 196.353 30.0652 196.443 30.168C196.534 30.2709 196.603 30.3908 196.647 30.5208C196.69 30.6508 196.707 30.7882 196.697 30.9249C196.687 31.0616 196.649 31.1949 196.587 31.3169C196.524 31.4388 196.438 31.5471 196.333 31.6353C193.26 34.3316 189.662 36.3619 185.765 37.5984C185.666 37.6327 185.561 37.6514 185.455 37.6539Z" fill="#C6B9AA"/>
<path d="M220.196 46.469C219.926 46.4695 219.667 46.3639 219.474 46.175H219.398L211.069 45.9406C210.797 45.9332 210.538 45.8178 210.351 45.6198C210.163 45.4218 210.062 45.1574 210.069 44.8847C210.077 44.612 210.192 44.3534 210.39 44.1658C210.588 43.9782 210.852 43.877 211.125 43.8843L219.456 44.1167C219.752 44.1167 220.65 44.1496 221.1 44.9392C221.233 45.177 221.266 45.4578 221.192 45.72C221.118 45.9821 220.943 46.2042 220.706 46.3375C220.55 46.4258 220.374 46.4712 220.196 46.469Z" fill="#C6B9AA"/>
<path d="M198.091 59.9785C197.836 59.9788 197.59 59.8843 197.401 59.7134C197.211 59.5425 197.093 59.3074 197.067 59.0537C197.041 58.8 197.111 58.5459 197.262 58.3406C197.413 58.1354 197.635 57.9936 197.885 57.9428C201.332 57.2581 204.812 56.4891 208.224 55.6563C208.489 55.5916 208.769 55.635 209.002 55.7767C209.235 55.9184 209.402 56.1469 209.467 56.412C209.532 56.677 209.488 56.9569 209.347 57.19C209.205 57.4231 208.976 57.5903 208.711 57.6549C205.271 58.4939 201.762 59.2691 198.284 59.96C198.22 59.9719 198.155 59.9781 198.091 59.9785Z" fill="#C6B9AA"/>
<path d="M222.167 67.673C221.894 67.6782 221.631 67.5748 221.435 67.3857C221.238 67.1965 221.125 66.9371 221.12 66.6644C221.114 66.3917 221.218 66.1281 221.407 65.9317C221.596 65.7352 221.855 65.6219 222.128 65.6168C225.536 65.4852 228.993 65.4337 232.406 65.4666C232.678 65.4666 232.94 65.575 233.132 65.7678C233.325 65.9606 233.433 66.2221 233.433 66.4947C233.433 66.7674 233.325 67.0289 233.132 67.2217C232.94 67.4146 232.678 67.5229 232.406 67.5229C229.028 67.49 225.606 67.5393 222.231 67.673H222.167Z" fill="#C6B9AA"/>
<path d="M223.9 57.5419C223.662 57.5423 223.431 57.46 223.247 57.3092C223.063 57.1584 222.937 56.9484 222.89 56.715C222.844 56.4815 222.88 56.2392 222.992 56.0292C223.104 55.8193 223.285 55.6548 223.505 55.5637C226.121 54.4744 228.62 53.1256 230.967 51.5376C231.079 51.4619 231.204 51.4089 231.337 51.3818C231.469 51.3546 231.605 51.3538 231.738 51.3794C231.871 51.405 231.997 51.4565 232.11 51.5309C232.223 51.6053 232.32 51.7012 232.395 51.8132C232.471 51.9251 232.524 52.0509 232.551 52.1832C232.578 52.3156 232.579 52.452 232.554 52.5848C232.528 52.7175 232.477 52.8438 232.402 52.9566C232.328 53.0695 232.232 53.1665 232.12 53.2422C229.659 54.9067 227.037 56.3203 224.295 57.4616C224.17 57.515 224.035 57.5423 223.9 57.5419Z" fill="#C6B9AA"/>
<path d="M216.636 33.8416C216.384 33.8424 216.14 33.7507 215.952 33.5838C215.763 33.417 215.642 33.1868 215.612 32.9367C215.582 32.6866 215.645 32.4342 215.788 32.2273C215.932 32.0203 216.146 31.8733 216.391 31.8141C218.315 31.3429 220.104 30.4313 221.616 29.1513C221.825 28.9836 222.091 28.904 222.357 28.9294C222.624 28.9549 222.87 29.0833 223.043 29.2875C223.216 29.4916 223.303 29.7554 223.285 30.0226C223.267 30.2898 223.145 30.5393 222.946 30.7182C221.189 32.2008 219.113 33.2565 216.88 33.8025C216.801 33.8256 216.718 33.8387 216.636 33.8416Z" fill="#C6B9AA"/>
<path d="M225.137 84.384C224.929 84.3837 224.725 84.3199 224.554 84.2011C223.353 83.3665 222.046 82.6977 220.667 82.2127C219.832 81.9186 218.94 81.6842 218.079 81.456L214.804 80.5903C214.541 80.5205 214.315 80.3488 214.178 80.113C214.041 79.8772 214.004 79.5966 214.073 79.3329C214.143 79.0692 214.315 78.8441 214.551 78.707C214.786 78.5699 215.067 78.5321 215.33 78.6019L218.605 79.4676C219.505 79.7061 220.436 79.9528 221.349 80.2736C222.901 80.8207 224.373 81.5731 225.725 82.5108C225.905 82.6357 226.041 82.815 226.112 83.0224C226.183 83.2299 226.186 83.4547 226.121 83.6639C226.055 83.8731 225.924 84.0559 225.747 84.1854C225.57 84.315 225.357 84.3846 225.137 84.384Z" fill="#C6B9AA"/>
<path d="M190.769 76.8828C190.546 76.8828 190.33 76.8105 190.152 76.6769C189.974 76.5432 189.844 76.3554 189.782 76.1417C189.72 75.928 189.729 75.6999 189.807 75.4917C189.886 75.2834 190.03 75.1064 190.218 74.987C192.194 73.7313 194.078 72.335 195.854 70.8087C196.062 70.6304 196.332 70.542 196.605 70.563C196.878 70.584 197.132 70.7127 197.31 70.9208C197.489 71.1288 197.577 71.3992 197.556 71.6724C197.535 71.9456 197.406 72.1993 197.198 72.3776C195.347 73.9694 193.383 75.4249 191.321 76.7327C191.155 76.8349 190.963 76.8871 190.769 76.8828Z" fill="#C6B9AA"/>
<path d="M172.277 54.0771C172.038 54.0772 171.806 53.9938 171.622 53.8413C171.437 53.6887 171.312 53.4767 171.267 53.2416C171.222 53.0065 171.261 52.7631 171.376 52.5534C171.492 52.3437 171.676 52.1808 171.899 52.0929C174.921 50.899 177.741 49.247 180.261 47.1949C180.365 47.1041 180.486 47.0351 180.617 46.9921C180.748 46.9491 180.886 46.933 181.024 46.9446C181.161 46.9563 181.295 46.9955 181.417 47.06C181.539 47.1245 181.647 47.2129 181.734 47.3199C181.821 47.427 181.886 47.5505 181.924 47.683C181.963 47.8156 181.974 47.9546 181.958 48.0916C181.941 48.2287 181.897 48.361 181.829 48.4807C181.76 48.6004 181.668 48.7051 181.558 48.7885C178.875 50.9735 175.873 52.733 172.655 54.0051C172.535 54.052 172.406 54.0764 172.277 54.0771Z" fill="#C6B9AA"/>
<path d="M208.997 97.2808C208.716 97.2816 208.436 97.261 208.158 97.2191C208.025 97.199 207.897 97.1527 207.781 97.0831C207.666 97.0134 207.565 96.9216 207.485 96.813C207.404 96.7043 207.346 96.5809 207.314 96.4499C207.281 96.3188 207.275 96.1826 207.295 96.0491C207.315 95.9156 207.361 95.7873 207.431 95.6716C207.501 95.556 207.593 95.4552 207.701 95.375C207.81 95.2948 207.933 95.2367 208.064 95.2042C208.195 95.1717 208.331 95.1653 208.465 95.1854C209.62 95.3602 210.905 94.9079 212.037 94.5069L215.719 93.2115C215.847 93.163 215.983 93.1407 216.12 93.1457C216.257 93.1508 216.392 93.1832 216.516 93.241C216.64 93.2987 216.751 93.3808 216.843 93.4822C216.935 93.5837 217.006 93.7025 217.052 93.8317C217.097 93.9609 217.116 94.098 217.108 94.2347C217.1 94.3715 217.064 94.5052 217.004 94.6281C216.943 94.7509 216.859 94.8604 216.755 94.9502C216.652 95.0399 216.531 95.108 216.401 95.1505L212.72 96.448C211.647 96.8264 210.354 97.2808 208.997 97.2808Z" fill="#C6B9AA"/>
<path d="M239.012 85.9859C238.586 85.9859 238.162 85.9811 237.74 85.9715C237.467 85.9685 237.207 85.8573 237.017 85.6624C236.826 85.4674 236.721 85.2047 236.724 84.932C236.727 84.6594 236.838 84.3991 237.033 84.2084C237.227 84.0177 237.49 83.9123 237.763 83.9153H237.785C239.828 83.9578 241.871 83.8891 243.907 83.7096C244.179 83.6859 244.45 83.7715 244.66 83.9475C244.869 84.1235 245 84.3756 245.024 84.6483C245.048 84.921 244.962 85.1919 244.786 85.4015C244.61 85.6111 244.358 85.7422 244.085 85.7659C242.406 85.9119 240.704 85.9859 239.012 85.9859Z" fill="#C6B9AA"/>
<path d="M176.454 92.9894C176.197 92.9893 175.95 92.8933 175.76 92.72C175.571 92.5468 175.453 92.3089 175.43 92.0531C175.407 91.7974 175.481 91.5424 175.637 91.3382C175.792 91.134 176.018 90.9954 176.271 90.9496C178.396 90.5627 180.435 89.7965 182.29 88.6878C182.405 88.6143 182.535 88.5648 182.67 88.5422C182.806 88.5196 182.944 88.5243 183.078 88.556C183.211 88.5878 183.337 88.646 183.447 88.7272C183.558 88.8083 183.651 88.9108 183.722 89.0286C183.792 89.1464 183.838 89.2771 183.857 89.4131C183.876 89.549 183.868 89.6873 183.833 89.82C183.798 89.9526 183.736 90.0769 183.652 90.1855C183.568 90.294 183.464 90.3846 183.344 90.452C181.278 91.6875 179.007 92.5414 176.639 92.9729C176.578 92.9835 176.516 92.989 176.454 92.9894Z" fill="#C6B9AA"/>
<path d="M225.516 108.144C225.271 108.144 225.034 108.056 224.848 107.897C224.661 107.738 224.538 107.517 224.5 107.275C224.462 107.033 224.512 106.785 224.641 106.577C224.769 106.368 224.968 106.212 225.201 106.137C227.257 105.475 229.312 104.816 231.368 104.161C231.624 104.092 231.896 104.125 232.129 104.252C232.361 104.38 232.535 104.592 232.615 104.845C232.694 105.098 232.673 105.372 232.556 105.61C232.438 105.847 232.234 106.03 231.984 106.121L225.828 108.093C225.727 108.126 225.622 108.144 225.516 108.144Z" fill="#C6B9AA"/>
<path d="M172.976 72.5504H172.962L162.739 72.4043C162.467 72.4024 162.206 72.2923 162.015 72.0981C161.823 71.904 161.717 71.6417 161.719 71.369C161.721 71.0963 161.831 70.8356 162.025 70.6442C162.219 70.4527 162.481 70.3462 162.754 70.3481H162.768L172.99 70.4941C173.125 70.4951 173.259 70.5225 173.383 70.5751C173.507 70.6276 173.62 70.7042 173.715 70.8003C173.81 70.8964 173.885 71.0103 173.935 71.1354C173.986 71.2605 174.012 71.3944 174.011 71.5294C174.01 71.6644 173.982 71.7979 173.93 71.9223C173.877 72.0467 173.801 72.1595 173.705 72.2543C173.609 72.3491 173.495 72.4241 173.37 72.4749C173.245 72.5256 173.111 72.5513 172.976 72.5504Z" fill="#C6B9AA"/>
<path d="M167.777 33.9259C167.526 33.9216 167.284 33.8251 167.099 33.6548C166.914 33.4844 166.798 33.2519 166.772 33.0015C166.747 32.7511 166.814 32.5 166.962 32.296C167.109 32.0919 167.326 31.9491 167.572 31.8944C168.665 31.6559 169.627 30.9177 170.655 30.1384C171.683 29.359 172.748 28.5407 174.069 28.1253C174.198 28.0848 174.334 28.0701 174.468 28.0819C174.603 28.0938 174.733 28.132 174.853 28.1945C174.973 28.2569 175.079 28.3423 175.166 28.4458C175.252 28.5493 175.318 28.6689 175.358 28.7977C175.399 28.9265 175.413 29.062 175.402 29.1965C175.39 29.331 175.351 29.4619 175.289 29.5816C175.227 29.7013 175.141 29.8075 175.038 29.8942C174.934 29.9809 174.815 30.0465 174.686 30.087C173.708 30.3954 172.836 31.0637 171.901 31.7731C170.744 32.6552 169.545 33.5702 168.006 33.9033C167.931 33.9195 167.854 33.9271 167.777 33.9259Z" fill="#C6B9AA"/>
<path d="M150.977 51.3855C150.842 51.3892 150.708 51.3664 150.582 51.3182C150.456 51.2701 150.34 51.1975 150.242 51.1047C150.044 50.9173 149.928 50.6588 149.921 50.3862C149.913 50.1135 150.014 49.8489 150.202 49.6507C150.389 49.4525 150.647 49.3368 150.92 49.3292C153.427 49.1883 155.923 48.8986 158.396 48.4615C158.531 48.4328 158.67 48.4316 158.805 48.4578C158.941 48.4841 159.069 48.5373 159.184 48.6143C159.298 48.6914 159.396 48.7906 159.471 48.9062C159.546 49.0218 159.597 49.1514 159.621 49.2871C159.646 49.4229 159.642 49.5622 159.611 49.6966C159.581 49.831 159.523 49.9579 159.442 50.0696C159.362 50.1814 159.259 50.2757 159.141 50.347C159.023 50.4184 158.892 50.4653 158.756 50.4848C156.202 50.9376 153.624 51.2369 151.035 51.3813L150.977 51.3855Z" fill="#C6B9AA"/>
<path d="M147.043 93.1292C146.836 93.1291 146.634 93.0663 146.463 92.9492C146.292 92.8321 146.161 92.666 146.086 92.4728C146.011 92.2797 145.996 92.0684 146.043 91.8667C146.09 91.6649 146.197 91.4822 146.35 91.3424L151.247 86.87C151.448 86.6862 151.714 86.59 151.987 86.6026C152.259 86.6151 152.515 86.7353 152.699 86.9368C152.883 87.1384 152.979 87.4046 152.966 87.6771C152.954 87.9495 152.834 88.2058 152.632 88.3896L147.736 92.8599C147.547 93.033 147.3 93.129 147.043 93.1292Z" fill="#C6B9AA"/>
<path d="M187.552 108.989C187.296 108.988 187.05 108.892 186.862 108.72C186.673 108.548 186.555 108.311 186.531 108.057C186.508 107.803 186.579 107.548 186.733 107.344C186.886 107.14 187.11 107 187.361 106.951C189.995 106.447 192.573 105.682 195.057 104.667C195.309 104.564 195.592 104.565 195.843 104.671C196.095 104.777 196.294 104.978 196.397 105.23C196.5 105.483 196.498 105.766 196.393 106.017C196.287 106.269 196.086 106.468 195.834 106.571C193.223 107.639 190.513 108.446 187.743 108.979C187.68 108.988 187.616 108.991 187.552 108.989Z" fill="#C6B9AA"/>
<path d="M125.347 77.6869C124.886 77.6872 124.426 77.6528 123.97 77.5841C123.832 77.569 123.699 77.5262 123.578 77.4583C123.457 77.3905 123.352 77.2989 123.267 77.1892C123.183 77.0794 123.121 76.9537 123.087 76.8195C123.052 76.6854 123.045 76.5457 123.065 76.4087C123.086 76.2717 123.134 76.1403 123.207 76.0224C123.279 75.9045 123.375 75.8025 123.488 75.7225C123.601 75.6425 123.729 75.5862 123.865 75.557C124 75.5278 124.14 75.5262 124.276 75.5525C127.08 75.9637 129.869 74.6992 132.965 73.12C133.206 73.0053 133.483 72.9893 133.736 73.0754C133.989 73.1614 134.199 73.3427 134.32 73.5808C134.442 73.8189 134.466 74.0951 134.388 74.3507C134.309 74.6063 134.134 74.8213 133.9 74.95C131.594 76.1282 128.543 77.6869 125.347 77.6869Z" fill="#C6B9AA"/>
<path d="M153.226 62.0574H146.649C146.376 62.0574 146.115 61.9491 145.922 61.7562C145.729 61.5634 145.621 61.302 145.621 61.0293C145.621 60.7566 145.729 60.4951 145.922 60.3023C146.115 60.1095 146.376 60.0012 146.649 60.0012H153.226C153.499 60.0012 153.76 60.1095 153.953 60.3023C154.146 60.4951 154.254 60.7566 154.254 61.0293C154.254 61.302 154.146 61.5634 153.953 61.7562C153.76 61.9491 153.499 62.0574 153.226 62.0574Z" fill="#C6B9AA"/>
<path d="M145.286 81.5526C145.042 81.5531 144.805 81.4666 144.619 81.3088C144.433 81.1509 144.309 80.932 144.27 80.6911C144.23 80.4503 144.278 80.2032 144.403 79.9941C144.529 79.785 144.725 79.6275 144.957 79.5498C146.328 79.0854 147.609 78.39 148.745 77.4936C148.96 77.3253 149.232 77.2492 149.503 77.282C149.773 77.3148 150.02 77.4538 150.188 77.6684C150.356 77.883 150.432 78.1556 150.4 78.4263C150.367 78.697 150.228 78.9436 150.013 79.1118C148.693 80.1474 147.206 80.9511 145.617 81.4889C145.51 81.5279 145.399 81.5495 145.286 81.5526Z" fill="#C6B9AA"/>
<path d="M180.343 64.8641C179.488 64.8641 178.634 64.8456 177.782 64.8086C177.647 64.8028 177.514 64.7704 177.392 64.7134C177.269 64.6564 177.159 64.5758 177.068 64.4762C176.977 64.3766 176.906 64.26 176.86 64.1331C176.813 64.0061 176.792 63.8713 176.798 63.7363C176.804 63.6013 176.836 63.4687 176.893 63.3462C176.95 63.2237 177.031 63.1136 177.131 63.0222C177.23 62.9309 177.347 62.86 177.474 62.8137C177.6 62.7674 177.735 62.7465 177.87 62.7524C180.027 62.8446 182.187 62.8164 184.341 62.6681C184.476 62.6587 184.611 62.6761 184.74 62.7192C184.868 62.7622 184.987 62.8301 185.089 62.919C185.191 63.0079 185.274 63.116 185.334 63.2372C185.395 63.3584 185.43 63.4902 185.44 63.6253C185.449 63.7603 185.432 63.8958 185.389 64.0241C185.346 64.1524 185.278 64.2709 185.189 64.373C185.1 64.4751 184.992 64.5586 184.871 64.6189C184.75 64.6792 184.618 64.715 184.483 64.7243C183.112 64.8168 181.726 64.8641 180.343 64.8641Z" fill="#C6B9AA"/>
<path d="M209.059 70.6277C208.833 70.6286 208.614 70.5552 208.434 70.4189C208.254 70.2826 208.124 70.0909 208.064 69.8735C208.004 69.656 208.017 69.4248 208.102 69.2156C208.186 69.0063 208.337 68.8305 208.531 68.7154C210.66 67.4422 212.648 65.9457 214.461 64.2513C214.516 64.0357 214.635 63.8418 214.802 63.695C214.97 63.5482 215.177 63.4555 215.398 63.4288C215.624 63.3996 215.852 63.4421 216.052 63.5502C216.252 63.6583 216.413 63.8267 216.512 64.0313C216.621 64.2647 216.65 64.5271 216.596 64.7787C216.542 65.0304 216.407 65.2574 216.212 65.4254C214.201 67.3552 211.977 69.0514 209.585 70.4818C209.426 70.577 209.244 70.6274 209.059 70.6277Z" fill="#C6B9AA"/>
<path d="M195.116 45.2743C194.816 45.2743 194.514 45.264 194.214 45.2435C194.079 45.2346 193.947 45.1992 193.826 45.1393C193.704 45.0794 193.596 44.9962 193.507 44.8944C193.418 44.7926 193.349 44.6742 193.306 44.5461C193.263 44.4179 193.245 44.2825 193.254 44.1475C193.263 44.0125 193.298 43.8806 193.358 43.7592C193.418 43.6379 193.501 43.5296 193.603 43.4404C193.704 43.3512 193.823 43.283 193.951 43.2396C194.079 43.1961 194.214 43.1783 194.349 43.1872C195.745 43.2808 197.146 43.1184 198.483 42.7081C198.742 42.6328 199.021 42.6625 199.258 42.7909C199.496 42.9193 199.673 43.136 199.752 43.3942C199.832 43.6524 199.806 43.9313 199.681 44.1708C199.556 44.4102 199.342 44.591 199.085 44.6739C197.799 45.0706 196.462 45.273 195.116 45.2743Z" fill="#C6B9AA"/>
<path d="M234.525 42.8027C234.282 42.8033 234.048 42.7182 233.862 42.5623C233.676 42.4064 233.551 42.1899 233.51 41.9509C233.468 41.712 233.513 41.466 233.635 41.2565C233.757 41.0471 233.949 40.8875 234.178 40.8061C235.275 40.4121 236.324 39.8925 237.302 39.2578C237.415 39.1824 237.542 39.1303 237.676 39.1044C237.809 39.0785 237.947 39.0793 238.08 39.1069C238.213 39.1345 238.339 39.1883 238.452 39.2651C238.564 39.3419 238.66 39.4402 238.734 39.5544C238.808 39.6685 238.858 39.7962 238.883 39.9301C238.907 40.0639 238.904 40.2013 238.875 40.3342C238.846 40.4671 238.791 40.5929 238.713 40.7042C238.635 40.8156 238.535 40.9104 238.42 40.983C237.31 41.7038 236.12 42.2938 234.874 42.7411C234.763 42.7826 234.644 42.8035 234.525 42.8027Z" fill="#C6B9AA"/>
<path d="M208.093 24.9402C207.897 24.9399 207.705 24.8837 207.54 24.778C207.375 24.6724 207.244 24.5218 207.161 24.344C207.079 24.1662 207.049 23.9685 207.076 23.7743C207.102 23.5801 207.183 23.3975 207.31 23.2479C208.085 22.3305 208.93 21.4746 209.838 20.6879C209.939 20.5945 210.058 20.5224 210.187 20.4758C210.317 20.4292 210.454 20.4092 210.592 20.4168C210.729 20.4244 210.864 20.4596 210.987 20.5202C211.111 20.5808 211.221 20.6656 211.311 20.7696C211.402 20.8736 211.47 20.9946 211.512 21.1256C211.555 21.2565 211.571 21.3947 211.559 21.5319C211.547 21.669 211.508 21.8024 211.443 21.9241C211.379 22.0458 211.291 22.1533 211.184 22.2403C210.357 22.958 209.586 23.739 208.88 24.5762C208.783 24.6906 208.663 24.7825 208.527 24.8454C208.391 24.9082 208.243 24.9406 208.093 24.9402Z" fill="#C6B9AA"/>
<path d="M192.734 21.9771C192.661 21.9769 192.589 21.9687 192.518 21.9525C191.303 21.6931 190.057 21.6045 188.818 21.6892C188.545 21.7081 188.276 21.6178 188.07 21.4383C187.864 21.2588 187.738 21.0047 187.719 20.7321C187.7 20.4594 187.791 20.1904 187.97 19.9843C188.149 19.7782 188.403 19.6518 188.676 19.633C190.11 19.5344 191.55 19.6368 192.956 19.9373C193.205 19.9881 193.427 20.1298 193.579 20.3351C193.73 20.5404 193.799 20.7946 193.774 21.0482C193.748 21.3019 193.629 21.537 193.44 21.7079C193.251 21.8788 193.005 21.9733 192.75 21.973L192.734 21.9771Z" fill="#C6B9AA"/>
<path d="M200.874 87.5013C200.768 87.5016 200.664 87.4856 200.563 87.454C198.607 86.8342 196.555 86.5688 194.506 86.6706C194.371 86.6772 194.236 86.6572 194.109 86.6116C193.981 86.5661 193.864 86.4959 193.764 86.4051C193.664 86.3143 193.583 86.2046 193.525 86.0824C193.467 85.9602 193.434 85.8278 193.428 85.6928C193.421 85.5578 193.441 85.4229 193.486 85.2956C193.532 85.1683 193.602 85.0512 193.693 84.9511C193.784 84.851 193.893 84.7697 194.015 84.7119C194.138 84.6541 194.27 84.621 194.405 84.6144C196.7 84.4991 198.998 84.7965 201.188 85.4924C201.421 85.5673 201.62 85.7228 201.748 85.931C201.877 86.1393 201.927 86.3865 201.889 86.6283C201.852 86.8702 201.73 87.0907 201.544 87.2504C201.359 87.41 201.122 87.4983 200.878 87.4993L200.874 87.5013Z" fill="#C6B9AA"/>
<path d="M231.23 97.5707C230.983 97.5714 230.745 97.4835 230.558 97.323C230.371 97.1625 230.248 96.9401 230.211 96.6964C230.174 96.4527 230.226 96.2039 230.357 95.9952C230.488 95.7866 230.69 95.632 230.926 95.5597C232.838 94.9676 234.643 94.0713 236.27 92.9051C236.492 92.7464 236.768 92.6824 237.037 92.7271C237.306 92.7718 237.546 92.9217 237.705 93.1436C237.863 93.3656 237.927 93.6415 237.883 93.9107C237.838 94.1798 237.688 94.4202 237.466 94.5789C235.66 95.8724 233.657 96.8667 231.534 97.5234C231.436 97.5552 231.333 97.5711 231.23 97.5707Z" fill="#C6B9AA"/>
<path d="M241.415 76.3462C241.362 76.3464 241.309 76.3416 241.257 76.3318C239.327 76.0353 237.369 75.9663 235.423 76.1262C235.151 76.1483 234.88 76.0612 234.672 75.884C234.464 75.7068 234.334 75.454 234.312 75.1813C234.29 74.9087 234.377 74.6384 234.554 74.43C234.731 74.2216 234.984 74.092 235.257 74.0699C237.363 73.898 239.483 73.9746 241.571 74.2982C241.844 74.3189 242.097 74.4471 242.275 74.6546C242.453 74.862 242.542 75.1318 242.521 75.4044C242.5 75.6771 242.372 75.9304 242.165 76.1086C241.957 76.2867 241.688 76.3752 241.415 76.3544V76.3462Z" fill="#C6B9AA"/>
<path d="M241.752 60.0176C241.495 60.0159 241.248 59.9179 241.06 59.7428C240.871 59.5678 240.755 59.3285 240.735 59.0721C240.714 58.8157 240.79 58.5609 240.948 58.3579C241.106 58.155 241.334 58.0186 241.588 57.9757C242.291 57.8608 242.949 57.5589 243.495 57.1018C243.599 57.0152 243.719 56.9497 243.847 56.9093C243.976 56.8688 244.112 56.8542 244.246 56.8661C244.381 56.878 244.511 56.9163 244.631 56.9788C244.751 57.0413 244.857 57.1268 244.944 57.2303C245.03 57.3339 245.096 57.4535 245.136 57.5824C245.176 57.7112 245.191 57.8468 245.179 57.9813C245.167 58.1158 245.129 58.2466 245.067 58.3664C245.004 58.4861 244.919 58.5923 244.815 58.679C243.985 59.372 242.985 59.83 241.919 60.0053C241.864 60.0134 241.808 60.0175 241.752 60.0176Z" fill="#C6B9AA"/>
<path d="M144.603 38.2173C144.373 38.2174 144.15 38.1403 143.969 37.9985C143.788 37.8566 143.66 37.6581 143.605 37.4348C143.55 37.2115 143.572 36.9761 143.666 36.7665C143.761 36.5568 143.923 36.3849 144.126 36.2783C145.794 35.4073 147.612 34.8629 149.483 34.6744C149.618 34.6609 149.754 34.6741 149.884 34.7133C150.014 34.7525 150.135 34.8169 150.24 34.9029C150.345 34.9888 150.432 35.0945 150.496 35.2141C150.56 35.3337 150.6 35.4647 150.614 35.5997C150.627 35.7347 150.614 35.8711 150.575 36.001C150.536 36.1309 150.471 36.2518 150.385 36.3568C150.299 36.4618 150.194 36.5489 150.074 36.6131C149.955 36.6772 149.824 36.7171 149.689 36.7306C148.079 36.8912 146.515 37.3596 145.082 38.1104C144.934 38.1847 144.769 38.2214 144.603 38.2173Z" fill="#C6B9AA"/>
<path d="M133.248 52.7241C132.728 52.7241 132.221 52.7097 131.694 52.685C131.422 52.6711 131.166 52.5495 130.983 52.3468C130.8 52.1442 130.705 51.8772 130.719 51.6045C130.733 51.3318 130.855 51.0758 131.057 50.8929C131.26 50.7099 131.527 50.6149 131.799 50.6288C133.028 50.6908 134.259 50.6737 135.485 50.5774C135.62 50.5669 135.756 50.5831 135.884 50.625C136.013 50.6669 136.132 50.7338 136.235 50.8218C136.338 50.9099 136.423 51.0173 136.484 51.138C136.545 51.2587 136.582 51.3903 136.593 51.5254C136.603 51.6604 136.587 51.7961 136.545 51.9249C136.503 52.0537 136.436 52.1729 136.348 52.2758C136.26 52.3787 136.153 52.4633 136.032 52.5247C135.912 52.5861 135.78 52.6231 135.645 52.6336C134.85 52.6933 134.048 52.7241 133.248 52.7241Z" fill="#C6B9AA"/>
<path d="M213.312 117.853C213.154 117.854 212.999 117.818 212.857 117.748C212.716 117.679 212.592 117.578 212.496 117.453C212.4 117.328 212.334 117.183 212.303 117.028C212.272 116.874 212.276 116.714 212.317 116.562C212.454 116.056 212.771 115.617 213.208 115.328C213.644 115.038 214.172 114.917 214.691 114.987C214.961 115.026 215.204 115.171 215.367 115.39C215.53 115.609 215.6 115.883 215.56 116.153C215.521 116.423 215.376 116.666 215.158 116.829C214.939 116.992 214.665 117.062 214.395 117.023C214.358 117.033 214.326 117.055 214.305 117.086C214.247 117.306 214.118 117.5 213.939 117.639C213.759 117.778 213.539 117.853 213.312 117.853Z" fill="#C6B9AA"/>
<path d="M160.702 104.907H160.671C160.399 104.907 160.137 104.799 159.945 104.606C159.752 104.413 159.644 104.152 159.644 103.879C159.644 103.607 159.752 103.345 159.945 103.152C160.137 102.959 160.399 102.851 160.671 102.851H160.696C162.325 102.842 163.903 102.276 165.167 101.247C165.377 101.074 165.648 100.991 165.919 101.017C166.191 101.044 166.441 101.177 166.614 101.387C166.787 101.598 166.87 101.868 166.844 102.14C166.818 102.411 166.685 102.661 166.474 102.835C164.847 104.172 162.808 104.904 160.702 104.907Z" fill="#C6B9AA"/>
<path d="M186.483 54.3176C186.21 54.3217 185.947 54.2173 185.752 54.0274C185.556 53.8375 185.444 53.5777 185.44 53.305C185.435 53.0323 185.54 52.7692 185.73 52.5735C185.92 52.3777 186.179 52.2655 186.452 52.2614L190.444 52.1442C190.579 52.1403 190.713 52.163 190.839 52.211C190.966 52.2591 191.081 52.3316 191.179 52.4243C191.277 52.517 191.356 52.6281 191.412 52.7514C191.467 52.8746 191.497 53.0075 191.501 53.1425C191.505 53.2775 191.483 53.412 191.435 53.5382C191.387 53.6645 191.314 53.78 191.221 53.8782C191.129 53.9765 191.018 54.0555 190.894 54.1108C190.771 54.166 190.638 54.1966 190.503 54.2005L186.514 54.3197L186.483 54.3176Z" fill="#C6B9AA"/>
<path d="M164.408 85.1428C164.169 85.064 163.967 84.8998 163.841 84.6816C163.714 84.4634 163.672 84.2063 163.723 83.9593C163.774 83.7123 163.914 83.4926 164.116 83.3419C164.318 83.1913 164.568 83.1201 164.819 83.1421C166.794 83.2987 168.778 82.9961 170.616 82.2579C170.742 82.2029 170.878 82.1737 171.015 82.1721C171.152 82.1704 171.289 82.1964 171.416 82.2484C171.543 82.3004 171.659 82.3773 171.756 82.4747C171.853 82.5722 171.929 82.688 171.98 82.8155C172.032 82.9429 172.057 83.0794 172.055 83.2169C172.053 83.3543 172.023 83.4899 171.967 83.6156C171.912 83.7414 171.832 83.8547 171.732 83.9489C171.632 84.0431 171.514 84.1163 171.385 84.1641C169.25 85.0225 166.946 85.3744 164.653 85.1922C164.57 85.1846 164.488 85.168 164.408 85.1428Z" fill="#C6B9AA"/>
</g>
<defs>
<clipPath id="clip0_1_11">
<rect width="294" height="182" fill="white"/>
</clipPath>
</defs>
</svg>
