<svg width="347" height="158" viewBox="0 0 347 158" fill="none" xmlns="http://www.w3.org/2000/svg">
<rect width="327" height="158" rx="8" fill="#CEF5E7"/>
<mask id="mask0_1_418" style="mask-type:alpha" maskUnits="userSpaceOnUse" x="197" y="56" width="151" height="102">
<rect x="197" y="56" width="150" height="102" fill="#D9D9D9"/>
</mask>
<g mask="url(#mask0_1_418)">
<g clip-path="url(#clip0_1_418)">
<path d="M205.827 154.929C205.829 161.028 211.406 167.117 211.782 173.221C213.696 172.442 215.687 172.081 217.387 172.419C217.091 169.91 215.639 167.396 214.095 165.13C212.382 162.614 210.456 160.123 209.554 157.316C208.803 154.98 208.892 152.559 209.691 150.558C209.21 149.695 208.724 148.785 208.274 147.786C206.948 149.896 205.825 152.217 205.827 154.929Z" fill="#544846"/>
<path d="M249.94 87.2919C248.801 85.7265 247.896 83.9526 247.161 82.1554C246.79 81.2419 246.443 80.2372 246.697 79.2486C247.582 75.8156 254.735 78.0181 256.738 78.6857C258.139 79.1423 259.459 79.8188 260.648 80.6898C261.636 81.4134 262.485 82.3093 263.155 83.3343C263.426 83.7255 263.623 84.1622 263.738 84.6236C263.818 85.0437 263.816 85.4752 263.733 85.8946C263.385 87.8834 261.806 89.4853 260.201 90.791C259.443 91.4073 258.612 92.014 257.659 92.1578C256.854 92.2804 256.056 92.0572 255.328 91.7519C253.109 90.8329 251.348 89.2239 249.94 87.2919ZM254.195 87.8339C254.773 88.4074 255.574 88.9531 256.246 89.4125C256.917 89.8719 257.754 90.1643 258.55 89.9926C259.419 89.8065 260.08 89.12 260.676 88.4611C261.271 87.8022 261.894 87.0607 261.939 86.1762C261.966 85.5624 261.701 84.9621 261.307 84.4904C260.896 84.0319 260.407 83.6494 259.864 83.3605C259.168 82.9576 258.442 82.6068 257.694 82.311C256.591 81.8779 255.432 81.5856 254.298 81.5487C253.635 81.5296 252.6 81.6571 251.999 81.9666C251.083 82.4376 251.221 83.6362 251.577 84.4077C251.784 84.8515 252.029 85.276 252.311 85.6761C252.845 86.4532 253.499 87.1408 254.195 87.8339Z" fill="#544846"/>
<path d="M252.303 85.6754C252.845 86.4532 253.499 87.1408 254.195 87.8339C254.773 88.4074 255.574 88.9531 256.246 89.4125C256.917 89.8719 257.754 90.1643 258.55 89.9926C259.419 89.8065 260.08 89.12 260.676 88.4611C261.271 87.8022 261.894 87.0607 261.939 86.1762C261.966 85.5624 261.701 84.9621 261.307 84.4904C260.896 84.0319 260.408 83.6494 259.864 83.3605C259.168 82.9576 258.442 82.6068 257.694 82.311C255.859 83.3634 254.067 84.4952 252.303 85.6754Z" fill="#C6B9AA"/>
<path d="M251.572 84.4048C251.778 84.8485 252.024 85.273 252.306 85.6731C254.074 84.4958 255.862 83.3611 257.693 82.3042C256.59 81.8712 255.431 81.5789 254.297 81.542C253.634 81.5229 252.598 81.6503 251.998 81.9599C251.075 82.4369 251.213 83.6355 251.572 84.4048Z" fill="#C6B9AA"/>
<path d="M314.869 143.952C315.451 144.731 316.087 145.468 316.773 146.157C316.771 146.136 316.773 146.114 316.779 146.093C316.804 146.041 316.845 145.998 316.896 145.972C317.532 145.554 318.617 144.48 319.425 144.471C319.577 144.472 319.727 144.502 319.867 144.56C317.113 140.659 314.939 136.379 313.414 131.854C312.446 132.829 311.46 133.786 310.456 134.727C310.106 135.054 309.754 135.379 309.4 135.7C311.029 138.575 312.856 141.332 314.869 143.952Z" fill="#544846"/>
<path d="M317.947 148.642C317.525 147.871 317.144 147.079 316.806 146.268C316.79 146.233 316.779 146.196 316.773 146.157C316.771 146.136 316.773 146.114 316.779 146.093C316.804 146.041 316.845 145.998 316.896 145.972C317.532 145.554 318.617 144.48 319.425 144.471C319.577 144.472 319.727 144.502 319.867 144.56C320.652 144.86 321.501 145.852 322.044 146.291C322.442 146.612 322.856 146.956 323.033 147.436C323.244 148.004 323.076 148.634 322.884 149.209C322.33 149.195 321.78 149.11 321.247 148.954L321.71 150.185C320.882 150.489 319.907 150.572 319.155 150.111C318.612 149.781 318.257 149.204 317.947 148.642Z" fill="#191818"/>
<path d="M296.691 112.528C295.747 112.932 295.872 114.494 296.896 115.174C297.856 115.812 299.035 116.091 300.087 116.239C305.381 116.962 310.585 116.559 315.347 115.058C316.642 114.65 317.927 114.148 318.901 113.191C319.433 112.667 319.834 112.024 320.07 111.316C320.307 110.607 320.373 109.853 320.264 109.113C320.024 107.477 318.738 105.76 317.296 105.497C314.266 104.942 311.136 108.206 308.676 109.288C305.392 110.726 301.92 111.688 298.365 112.145C297.805 112.216 297.202 112.31 296.691 112.528Z" fill="white"/>
<path d="M266.23 72.042C266.517 73.9673 267.16 75.8565 268.224 77.441C269.01 77.1744 269.81 76.9297 270.616 76.7098C270.491 76.4559 270.382 76.1949 270.287 75.9283C269.634 74.1207 269.196 72.0289 269.474 70.1289C269.571 69.4721 269.876 68.4746 270.285 67.9368C270.908 67.1171 272.064 67.4608 272.762 67.9458C273.981 68.792 274.834 69.9093 275.681 71.1269C276.146 71.7954 276.544 72.6788 276.88 73.4202C277.168 74.0617 277.316 74.8016 277.151 75.4774C277.876 75.4027 278.6 75.3499 279.326 75.3192L279.335 75.295C279.595 74.5234 279.514 73.6986 279.34 72.9289C278.4 68.6773 274.964 65.525 271.308 63.216C270.472 62.6915 269.543 62.1754 268.526 62.2544C264.993 62.5259 265.92 69.9531 266.23 72.042Z" fill="#544846"/>
<path d="M270.287 75.9283C270.381 76.195 270.491 76.4559 270.616 76.7098C272.756 76.1193 274.942 75.7071 277.151 75.4775C277.316 74.8016 277.168 74.0617 276.88 73.4202C276.544 72.6789 276.146 71.7954 275.681 71.1269C274.834 69.9094 273.981 68.792 272.762 67.9458C272.064 67.4599 270.908 67.1171 270.285 67.9368C269.876 68.4747 269.571 69.4721 269.474 70.129C269.196 72.0289 269.634 74.1207 270.287 75.9283Z" fill="#C6B9AA"/>
<path d="M327.889 131.948C328.814 132.248 329.76 132.484 330.718 132.652C330.703 132.636 330.691 132.617 330.685 132.596C330.672 132.538 330.68 132.478 330.706 132.425C330.985 131.716 331.252 130.213 331.903 129.736C332.027 129.649 332.167 129.587 332.314 129.553C328.255 128.111 324.402 126.144 320.853 123.7C319.703 125.059 318.529 126.397 317.333 127.716C320.733 129.407 324.263 130.822 327.889 131.948Z" fill="#544846"/>
<path d="M330.685 132.596C330.672 132.538 330.68 132.477 330.706 132.425C330.985 131.716 331.252 130.213 331.903 129.736C332.027 129.649 332.167 129.587 332.314 129.553C333.129 129.345 334.397 129.663 335.093 129.712C335.602 129.744 336.139 129.787 336.561 130.076C337.062 130.421 337.286 131.031 337.461 131.61C337.001 131.919 336.502 132.167 335.978 132.348L337.065 133.085C336.565 133.812 335.815 134.44 334.937 134.5C334.297 134.541 333.679 134.277 333.102 133.995C332.312 133.609 331.543 133.18 330.8 132.711C330.765 132.69 330.734 132.665 330.706 132.636C330.697 132.624 330.69 132.61 330.685 132.596Z" fill="#191818"/>
<path d="M210.686 152.327C210.366 151.748 210.029 151.164 209.692 150.557C209.211 149.694 208.725 148.785 208.275 147.785C206.857 144.636 205.793 140.58 206.319 134.165C206.748 128.963 209.353 125.207 210.898 122.689C219.698 108.351 231.677 100.676 245.218 90.6949C246.773 89.5431 248.348 88.4038 249.94 87.2918C251.348 89.2239 253.109 90.8329 255.332 91.7522C256.064 92.057 256.86 92.2784 257.663 92.158C258.613 92.0132 259.445 91.4058 260.204 90.7912C261.81 89.4856 263.388 87.8837 263.736 85.8949C263.819 85.4755 263.821 85.044 263.741 84.6238C263.626 84.1625 263.429 83.7257 263.159 83.3346C262.489 82.3095 261.639 81.4137 260.652 80.69C263.008 79.4648 265.449 78.4105 267.956 77.535L268.223 77.4443C269.01 77.1777 269.809 76.933 270.615 76.7131C272.756 76.1226 274.942 75.7104 277.151 75.4807C277.875 75.406 278.6 75.3532 279.326 75.3225C284.277 75.1103 289.214 75.9328 293.639 78.1335C298.461 80.5313 302.386 84.3859 306.889 87.3387C311.108 90.1058 316.338 92.0981 321.162 90.8822C321.485 90.8007 321.809 90.7041 322.129 90.5931C324.01 89.9337 325.899 87.9518 327.834 86.5076C325.537 89.3389 325.64 93.7612 328.195 97.1569C328.31 97.3101 328.429 97.4613 328.555 97.6105C331.123 100.672 335.025 101.831 338.198 100.761C337.788 101.399 337.346 102.019 336.911 102.624C331.746 109.789 326.56 116.976 320.863 123.706C319.712 125.065 318.539 126.403 317.342 127.722C316.064 129.128 314.756 130.506 313.418 131.856C312.449 132.831 311.463 133.788 310.459 134.729C310.109 135.056 309.757 135.381 309.403 135.702C305.609 139.164 301.59 142.372 297.574 145.576L286.283 154.591C282.72 157.427 279.143 160.285 275.42 162.91C273.881 163.996 272.32 165.04 270.726 166.029C268.479 167.436 266.151 168.708 263.754 169.839C263.62 169.902 263.484 169.965 263.348 170.026C261.782 170.746 260.18 171.384 258.548 171.939C251.37 174.372 243.586 175.117 236.396 172.894C224.367 169.174 216.786 163.34 210.686 152.327ZM296.896 115.174C297.856 115.812 299.035 116.091 300.087 116.238C305.381 116.962 310.585 116.559 315.347 115.058C316.642 114.65 317.927 114.148 318.901 113.191C319.433 112.667 319.834 112.024 320.07 111.316C320.307 110.607 320.373 109.853 320.264 109.113C320.024 107.477 318.738 105.76 317.296 105.497C314.266 104.942 311.136 108.206 308.676 109.288C305.392 110.726 301.92 111.688 298.365 112.145C297.804 112.217 297.201 112.311 296.694 112.525C295.747 112.932 295.87 114.491 296.896 115.174Z" fill="#695E5B"/>
<path d="M321.16 90.8812C321.483 90.7996 321.806 90.7031 322.127 90.5921C324.008 89.9326 325.897 87.9507 327.831 86.5066C328.067 86.219 328.325 85.951 328.604 85.705C327.92 82.8006 326.882 79.991 325.514 77.3388C325.027 76.3935 324.375 75.3712 323.455 74.6769C322.473 73.9363 320.958 74.3356 320.891 75.3598C320.854 75.9144 320.966 76.5146 321.083 77.0677C321.831 80.5756 322.075 84.1722 321.806 87.7487C321.735 88.6643 321.447 89.7456 321.16 90.8812Z" fill="#CBC7C7"/>
<path d="M330.813 94.2954C331.177 95.0085 331.764 95.6577 332.498 95.9711C334.201 96.699 335.394 95.5521 334.47 93.8999C334.179 93.3499 333.765 92.8743 333.261 92.5099C332.75 92.1587 332.118 91.9758 331.563 92.0963C331.289 92.1503 331.04 92.2924 330.854 92.5011C330.667 92.7098 330.555 92.9736 330.532 93.2524C330.535 93.6184 330.632 93.9776 330.813 94.2954Z" fill="#191818"/>
<path d="M328.191 97.1574C325.643 93.7556 325.537 89.3356 327.83 86.5081C328.065 86.2206 328.324 85.9525 328.602 85.7065C328.657 85.6606 328.713 85.6138 328.769 85.5671C332.117 82.7572 337.449 83.5993 340.678 87.4471C343.907 91.2948 343.81 96.6921 340.461 99.502C339.792 100.064 339.024 100.494 338.196 100.772C335.022 101.842 331.121 100.683 328.552 97.622C328.425 97.4618 328.306 97.3106 328.191 97.1574ZM339.36 90.2134C339.178 89.4364 338.64 88.7465 338.001 88.2641C337.72 88.0303 337.384 87.8726 337.025 87.8063C336.879 87.7888 336.732 87.7991 336.591 87.8365C336.392 87.8903 336.208 87.9894 336.054 88.126C335.901 88.2626 335.78 88.433 335.703 88.6239C335.487 89.1487 335.558 89.8027 335.815 90.3682C336.087 90.9275 336.484 91.4174 336.974 91.8004C337.927 92.5718 338.819 92.4393 339.217 91.7563C339.44 91.3821 339.507 90.8509 339.362 90.2119L339.36 90.2134ZM332.496 95.9726C334.199 96.7006 335.392 95.5537 334.468 93.9014C334.177 93.3514 333.763 92.8758 333.259 92.5114C332.748 92.1602 332.116 91.9774 331.561 92.0978C331.287 92.1518 331.038 92.294 330.852 92.5027C330.666 92.7114 330.553 92.9752 330.53 93.254C330.533 93.6196 330.63 93.9785 330.811 94.2961C331.177 95.0085 331.764 95.6578 332.498 95.9711L332.496 95.9726Z" fill="#C68FBF"/>
<path d="M335.82 90.3627C335.563 89.7982 335.492 89.1441 335.708 88.6184C335.785 88.4276 335.905 88.2571 336.059 88.1205C336.213 87.9839 336.397 87.8848 336.595 87.8311C336.737 87.7936 336.884 87.7834 337.029 87.8008C337.389 87.8671 337.725 88.0248 338.006 88.2587C338.645 88.741 339.182 89.431 339.364 90.208C339.515 90.8474 339.443 91.3781 339.225 91.7479C338.827 92.4299 337.93 92.5662 336.982 91.7919C336.491 91.4102 336.093 90.9214 335.82 90.3627Z" fill="#191818"/>
<path d="M300.415 81.1952C297.776 83.409 293.842 83.0641 291.628 80.4249C289.413 77.7858 289.757 73.8517 292.395 71.6379C295.033 69.4241 298.967 69.7689 301.182 72.4081C303.396 75.0473 303.053 78.9814 300.415 81.1952Z" fill="white"/>
<path d="M298.123 79.7937C297.027 80.7134 295.394 80.5715 294.475 79.4766C293.556 78.3818 293.7 76.7486 294.796 75.8288C295.892 74.9091 297.526 75.051 298.444 76.1459C299.363 77.2407 299.219 78.8739 298.123 79.7937Z" fill="#1D1D1B"/>
<path d="M293.594 96.8611C290.928 99.0986 286.951 98.75 284.713 96.0825C282.475 93.415 282.822 89.4387 285.489 87.2012C288.155 84.9637 292.131 85.3122 294.37 87.9797C296.608 90.6472 296.261 94.6235 293.594 96.8611Z" fill="white"/>
<path d="M290.112 95.8782C288.99 96.8203 287.317 96.6749 286.376 95.5536C285.435 94.4322 285.582 92.7595 286.705 91.8175C287.828 90.8755 289.5 91.0209 290.441 92.1422C291.382 93.2636 291.235 94.9362 290.112 95.8782Z" fill="#1D1D1B"/>
<path d="M324.821 108.344C324.625 108.142 324.518 107.871 324.522 107.59C324.527 107.31 324.642 107.042 324.844 106.847C325.045 106.652 325.316 106.544 325.597 106.549C325.878 106.553 326.145 106.669 326.341 106.871C327.962 108.544 330.353 109.324 332.145 108.758C332.26 108.722 332.38 108.706 332.501 108.711C331.933 109.493 331.361 110.272 330.786 111.047C328.688 111.018 326.469 110.044 324.821 108.344Z" fill="#191818"/>
<path d="M230.298 120.52C230.405 120.43 230.477 120.305 230.5 120.166C230.523 120.028 230.495 119.886 230.422 119.766C230.35 119.647 230.236 119.557 230.103 119.513C229.97 119.47 229.825 119.475 229.696 119.529C227.689 120.354 225.533 120.755 223.364 120.707C223.286 120.703 223.208 120.715 223.134 120.742C223.061 120.769 222.994 120.81 222.936 120.863C222.879 120.916 222.833 120.98 222.801 121.052C222.769 121.123 222.751 121.2 222.749 121.278C222.748 121.357 222.761 121.434 222.79 121.507C222.819 121.58 222.861 121.646 222.916 121.702C222.971 121.758 223.036 121.803 223.108 121.833C223.18 121.864 223.258 121.879 223.336 121.879C225.668 121.931 227.985 121.498 230.142 120.61C230.198 120.588 230.251 120.558 230.298 120.52Z" fill="#C6B9AA"/>
<path d="M218.346 137.115C218.464 137.017 218.539 136.875 218.553 136.722L218.587 136.694L222.141 133.537C222.258 133.434 222.329 133.289 222.338 133.133C222.347 132.978 222.294 132.825 222.191 132.709C222.088 132.592 221.943 132.521 221.787 132.512C221.632 132.503 221.479 132.555 221.363 132.659L217.807 135.816C217.677 135.924 217.297 136.268 217.389 136.778C217.419 136.931 217.507 137.066 217.636 137.153C217.764 137.241 217.922 137.274 218.075 137.245C218.175 137.227 218.269 137.182 218.346 137.115Z" fill="#C6B9AA"/>
<path d="M232.963 134.913C233.075 134.819 233.148 134.688 233.168 134.544C233.188 134.4 233.153 134.253 233.071 134.133C232.99 134.013 232.866 133.927 232.725 133.893C232.583 133.859 232.434 133.878 232.306 133.948C230.548 134.913 228.745 135.853 226.948 136.74C226.809 136.809 226.702 136.931 226.653 137.078C226.603 137.226 226.613 137.387 226.682 137.526C226.751 137.666 226.873 137.772 227.02 137.822C227.168 137.872 227.329 137.862 227.468 137.793C229.28 136.897 231.098 135.949 232.872 134.976C232.904 134.957 232.935 134.936 232.963 134.913Z" fill="#C6B9AA"/>
<path d="M225.261 147.107C225.382 147.009 225.46 146.867 225.476 146.713C225.493 146.558 225.447 146.403 225.349 146.282C225.252 146.161 225.11 146.083 224.955 146.067C224.8 146.05 224.645 146.096 224.524 146.194C222.986 147.386 221.456 148.632 219.977 149.898C219.858 149.998 219.783 150.141 219.77 150.296C219.756 150.451 219.805 150.605 219.905 150.724C220.005 150.843 220.148 150.918 220.303 150.931C220.458 150.945 220.612 150.896 220.731 150.796C222.195 149.543 223.709 148.31 225.234 147.13L225.261 147.107Z" fill="#C6B9AA"/>
<path d="M220.788 143.314C220.892 143.227 220.963 143.106 220.988 142.973C221.013 142.839 220.991 142.701 220.926 142.582C220.861 142.463 220.756 142.37 220.63 142.32C220.504 142.269 220.365 142.264 220.235 142.305C218.692 142.788 217.105 143.115 215.497 143.281C215.42 143.289 215.346 143.312 215.278 143.349C215.21 143.386 215.15 143.435 215.102 143.495C215.053 143.555 215.017 143.624 214.995 143.698C214.973 143.772 214.966 143.849 214.974 143.926C214.981 144.003 215.004 144.077 215.041 144.145C215.078 144.213 215.128 144.273 215.187 144.321C215.247 144.37 215.316 144.406 215.39 144.428C215.464 144.45 215.541 144.457 215.618 144.449C217.304 144.274 218.969 143.931 220.586 143.424C220.66 143.401 220.729 143.364 220.788 143.314Z" fill="#C6B9AA"/>
<path d="M215.271 130.29C215.381 130.198 215.454 130.069 215.475 129.927C215.496 129.785 215.465 129.64 215.386 129.519C215.308 129.399 215.188 129.311 215.049 129.274C214.91 129.236 214.763 129.25 214.634 129.314C213.62 129.814 212.504 130.071 211.373 130.067C211.221 130.07 211.075 130.133 210.968 130.242C210.861 130.35 210.8 130.497 210.8 130.65C210.799 130.802 210.857 130.949 210.963 131.06C211.069 131.17 211.214 131.234 211.367 131.239C212.678 131.243 213.973 130.943 215.149 130.363C215.193 130.344 215.233 130.319 215.271 130.29Z" fill="#C6B9AA"/>
<path d="M230.092 155.501C230.183 155.424 230.249 155.321 230.28 155.207C230.499 154.402 230.825 153.63 231.25 152.912C231.507 152.477 231.811 152.048 232.104 151.632L233.217 150.052C233.307 149.925 233.342 149.768 233.316 149.614C233.289 149.461 233.203 149.324 233.076 149.235C232.948 149.145 232.791 149.11 232.638 149.136C232.484 149.163 232.348 149.249 232.258 149.376L231.144 150.956C230.838 151.39 230.522 151.84 230.241 152.315C229.763 153.123 229.395 153.992 229.148 154.898C229.115 155.018 229.122 155.146 229.167 155.263C229.212 155.38 229.293 155.479 229.398 155.547C229.504 155.614 229.628 155.646 229.753 155.638C229.878 155.629 229.997 155.581 230.092 155.501Z" fill="#C6B9AA"/>
<path d="M242.364 139.616C242.461 139.535 242.529 139.424 242.558 139.3C242.587 139.176 242.574 139.047 242.523 138.93C242.472 138.814 242.384 138.718 242.274 138.656C242.163 138.593 242.035 138.569 241.909 138.586C240.585 138.762 239.249 138.842 237.913 138.826C237.757 138.825 237.606 138.885 237.495 138.995C237.383 139.104 237.319 139.253 237.318 139.41C237.316 139.566 237.377 139.716 237.486 139.828C237.595 139.94 237.745 140.004 237.901 140.005C239.294 140.022 240.686 139.938 242.067 139.753C242.177 139.737 242.28 139.69 242.364 139.616Z" fill="#C6B9AA"/>
<path d="M242.082 122.866C242.187 122.778 242.257 122.656 242.282 122.522C242.307 122.388 242.284 122.249 242.217 122.13C242.15 122.011 242.044 121.918 241.917 121.869C241.79 121.82 241.649 121.816 241.519 121.859C239.761 122.446 237.922 122.758 236.068 122.786C235.989 122.784 235.911 122.798 235.838 122.827C235.765 122.857 235.698 122.901 235.643 122.956C235.587 123.012 235.543 123.078 235.513 123.151C235.483 123.224 235.469 123.302 235.47 123.381C235.471 123.459 235.488 123.537 235.52 123.609C235.552 123.681 235.598 123.746 235.655 123.8C235.713 123.854 235.78 123.895 235.854 123.923C235.928 123.95 236.007 123.962 236.086 123.958C238.06 123.929 240.017 123.597 241.89 122.973C241.96 122.949 242.025 122.913 242.082 122.866Z" fill="#C6B9AA"/>
<path d="M241.877 155.218C242 155.115 242.115 155.004 242.221 154.884C242.272 154.826 242.311 154.759 242.336 154.686C242.361 154.613 242.372 154.536 242.367 154.459C242.362 154.382 242.342 154.307 242.308 154.238C242.275 154.168 242.227 154.106 242.17 154.055C242.112 154.005 242.045 153.965 241.972 153.94C241.899 153.915 241.822 153.905 241.745 153.91C241.668 153.915 241.593 153.934 241.524 153.968C241.454 154.002 241.393 154.049 241.342 154.107C240.901 154.607 240.173 154.881 239.531 155.121L237.447 155.905C237.373 155.931 237.305 155.971 237.247 156.023C237.189 156.076 237.142 156.139 237.109 156.21C237.076 156.281 237.058 156.357 237.055 156.436C237.052 156.514 237.064 156.592 237.092 156.665C237.119 156.738 237.161 156.805 237.215 156.862C237.269 156.918 237.333 156.964 237.405 156.995C237.476 157.027 237.553 157.044 237.631 157.045C237.71 157.046 237.787 157.032 237.86 157.003L239.945 156.219C240.553 155.991 241.284 155.716 241.877 155.218Z" fill="#C6B9AA"/>
<path d="M254.528 141.406C254.64 141.312 254.713 141.179 254.733 141.034C254.752 140.889 254.716 140.742 254.632 140.622C254.548 140.501 254.423 140.417 254.28 140.385C254.137 140.353 253.987 140.375 253.86 140.448C252.789 141.058 251.617 141.471 250.4 141.666C250.322 141.677 250.247 141.703 250.18 141.742C250.112 141.782 250.054 141.835 250.007 141.898C249.96 141.961 249.927 142.032 249.908 142.108C249.889 142.184 249.886 142.263 249.899 142.341C249.911 142.418 249.939 142.492 249.98 142.558C250.022 142.625 250.076 142.682 250.14 142.727C250.204 142.772 250.277 142.804 250.353 142.821C250.43 142.838 250.509 142.839 250.586 142.824C251.942 142.607 253.248 142.147 254.441 141.467C254.472 141.449 254.501 141.429 254.528 141.406Z" fill="#C6B9AA"/>
<path d="M248.552 131.197L248.558 131.191L252.973 127.378C253.091 127.277 253.165 127.134 253.177 126.979C253.19 126.824 253.14 126.67 253.039 126.551C252.938 126.433 252.795 126.359 252.64 126.347C252.485 126.334 252.331 126.384 252.212 126.485L252.206 126.49L247.791 130.303C247.733 130.353 247.685 130.414 247.65 130.483C247.614 130.551 247.593 130.626 247.587 130.703C247.581 130.78 247.59 130.857 247.614 130.93C247.637 131.003 247.675 131.071 247.725 131.13C247.775 131.189 247.836 131.237 247.905 131.272C247.973 131.307 248.048 131.328 248.125 131.335C248.202 131.341 248.279 131.332 248.352 131.308C248.425 131.284 248.493 131.247 248.552 131.197Z" fill="#C6B9AA"/>
<path d="M236.658 112.407C236.766 112.313 236.836 112.182 236.855 112.04C236.873 111.897 236.839 111.753 236.758 111.634C236.677 111.516 236.556 111.431 236.416 111.395C236.277 111.36 236.13 111.377 236.003 111.444C235.437 111.74 234.746 111.771 234.011 111.807C233.276 111.843 232.51 111.876 231.78 112.179C231.709 112.209 231.644 112.252 231.59 112.307C231.535 112.361 231.492 112.426 231.463 112.497C231.433 112.568 231.418 112.644 231.418 112.721C231.418 112.798 231.434 112.875 231.463 112.946C231.493 113.017 231.536 113.082 231.591 113.136C231.645 113.191 231.71 113.234 231.781 113.263C231.852 113.293 231.928 113.308 232.006 113.308C232.083 113.308 232.159 113.292 232.23 113.263C232.771 113.039 233.397 113.011 234.066 112.978C234.895 112.939 235.755 112.9 236.55 112.481C236.588 112.46 236.625 112.436 236.658 112.407Z" fill="#C6B9AA"/>
<path d="M250.405 113.877C250.465 113.829 250.516 113.77 250.553 113.702C250.591 113.635 250.614 113.561 250.623 113.484C250.641 113.33 250.597 113.174 250.5 113.052C250.404 112.931 250.262 112.852 250.108 112.834C249.953 112.816 249.798 112.86 249.676 112.957C248.528 113.815 247.331 114.604 246.09 115.32C246.02 115.357 245.959 115.407 245.909 115.468C245.86 115.529 245.823 115.6 245.802 115.675C245.78 115.751 245.773 115.83 245.783 115.908C245.793 115.986 245.818 116.062 245.857 116.13C245.896 116.198 245.949 116.258 246.011 116.305C246.074 116.353 246.146 116.387 246.222 116.406C246.298 116.426 246.378 116.429 246.456 116.417C246.533 116.405 246.608 116.377 246.675 116.336C247.957 115.597 249.194 114.783 250.378 113.896L250.405 113.877Z" fill="#C6B9AA"/>
<path d="M267.435 130.68C267.526 130.604 267.591 130.503 267.623 130.389C267.654 130.275 267.651 130.154 267.613 130.042C267.575 129.93 267.504 129.832 267.409 129.762C267.314 129.691 267.201 129.65 267.083 129.645L263.302 129.486C263.147 129.48 262.995 129.535 262.88 129.641C262.766 129.746 262.698 129.892 262.692 130.048C262.685 130.203 262.741 130.355 262.846 130.47C262.952 130.584 263.098 130.652 263.254 130.658L267.034 130.817C267.18 130.823 267.323 130.774 267.435 130.68Z" fill="#C6B9AA"/>
<path d="M255.546 152.47C255.657 152.376 255.729 152.244 255.749 152.1C255.768 151.955 255.733 151.809 255.65 151.689C255.567 151.569 255.442 151.484 255.3 151.451C255.158 151.418 255.009 151.438 254.882 151.509C253.545 152.255 252.138 152.866 250.68 153.334C250.532 153.381 250.409 153.485 250.338 153.624C250.266 153.762 250.253 153.923 250.301 154.071C250.348 154.22 250.453 154.343 250.591 154.414C250.73 154.485 250.891 154.498 251.039 154.451C252.572 153.96 254.052 153.319 255.458 152.536C255.489 152.517 255.519 152.495 255.546 152.47Z" fill="#C6B9AA"/>
<path d="M271.255 115.973C271.456 115.804 271.645 115.62 271.819 115.423C271.874 115.366 271.916 115.298 271.944 115.224C271.972 115.15 271.985 115.071 271.981 114.992C271.978 114.913 271.959 114.836 271.925 114.765C271.891 114.693 271.843 114.629 271.783 114.577C271.724 114.525 271.655 114.485 271.58 114.46C271.505 114.435 271.426 114.426 271.347 114.432C271.268 114.439 271.191 114.461 271.121 114.498C271.052 114.535 270.99 114.586 270.94 114.647C269.865 115.855 268.182 116.325 266.25 116.771C266.102 116.809 265.976 116.903 265.896 117.034C265.817 117.164 265.792 117.32 265.826 117.469C265.861 117.618 265.951 117.747 266.079 117.83C266.207 117.913 266.363 117.943 266.512 117.913C267.953 117.583 269.858 117.145 271.255 115.973Z" fill="#C6B9AA"/>
<path d="M253.336 119.366L256.211 116.954C256.33 116.854 256.405 116.711 256.418 116.556C256.432 116.401 256.383 116.247 256.283 116.128C256.183 116.008 256.04 115.934 255.885 115.92C255.73 115.907 255.576 115.955 255.457 116.055L252.582 118.468C252.463 118.568 252.388 118.711 252.375 118.866C252.361 119.021 252.41 119.175 252.51 119.294C252.61 119.413 252.753 119.488 252.908 119.501C253.063 119.515 253.217 119.466 253.336 119.366Z" fill="#C6B9AA"/>
<path d="M263.957 124.975C264.064 124.886 264.136 124.762 264.159 124.624C264.183 124.487 264.156 124.346 264.085 124.226C264.014 124.106 263.903 124.016 263.771 123.971C263.64 123.925 263.496 123.929 263.366 123.979C262.597 124.279 261.782 124.445 260.956 124.47C260.801 124.475 260.654 124.542 260.548 124.656C260.441 124.769 260.385 124.92 260.39 125.076C260.395 125.231 260.462 125.378 260.575 125.485C260.689 125.591 260.84 125.648 260.996 125.643C261.953 125.611 262.897 125.417 263.789 125.069C263.85 125.047 263.907 125.016 263.957 124.975Z" fill="#C6B9AA"/>
<path d="M242.513 130.539C242.886 130.225 243.253 129.904 243.612 129.575C243.669 129.523 243.715 129.461 243.747 129.391C243.78 129.321 243.799 129.245 243.802 129.168C243.805 129.091 243.794 129.014 243.767 128.942C243.741 128.869 243.701 128.803 243.648 128.746C243.596 128.689 243.534 128.643 243.464 128.61C243.394 128.578 243.318 128.559 243.241 128.556C243.164 128.552 243.087 128.564 243.015 128.59C242.942 128.617 242.876 128.657 242.819 128.709C241.91 129.54 240.955 130.32 239.96 131.045C239.897 131.091 239.844 131.148 239.804 131.214C239.764 131.28 239.737 131.353 239.725 131.429C239.713 131.506 239.716 131.583 239.734 131.659C239.752 131.734 239.785 131.804 239.83 131.867C239.876 131.929 239.933 131.982 239.999 132.022C240.065 132.063 240.138 132.09 240.214 132.102C240.291 132.114 240.369 132.111 240.444 132.092C240.519 132.074 240.589 132.042 240.652 131.996C241.285 131.534 241.908 131.046 242.513 130.539Z" fill="#C6B9AA"/>
<path d="M232.075 143.591C232.174 143.508 232.243 143.396 232.271 143.27C232.3 143.145 232.286 143.013 232.233 142.896C232.179 142.779 232.089 142.683 231.975 142.622C231.862 142.562 231.731 142.54 231.604 142.561C230.206 142.785 228.789 142.86 227.375 142.785C227.272 142.711 227.148 142.67 227.022 142.667C226.895 142.664 226.77 142.7 226.663 142.769C226.554 142.839 226.47 142.941 226.422 143.062C226.374 143.183 226.366 143.315 226.397 143.441C226.436 143.583 226.519 143.708 226.635 143.798C226.751 143.888 226.893 143.938 227.04 143.94C228.627 144.046 230.221 143.972 231.791 143.72C231.896 143.703 231.994 143.658 232.075 143.591Z" fill="#C6B9AA"/>
<path d="M228.87 127.395C229.001 127.284 229.13 127.169 229.253 127.05C229.309 126.997 229.354 126.933 229.385 126.862C229.416 126.792 229.433 126.715 229.434 126.638C229.436 126.561 229.422 126.484 229.394 126.412C229.366 126.34 229.324 126.275 229.271 126.219C229.218 126.163 229.154 126.119 229.083 126.087C229.012 126.056 228.936 126.04 228.859 126.038C228.782 126.036 228.705 126.05 228.633 126.078C228.561 126.106 228.496 126.148 228.44 126.201C227.864 126.754 227.192 127.197 226.457 127.508C226.316 127.57 226.206 127.685 226.149 127.828C226.092 127.972 226.094 128.131 226.154 128.273C226.214 128.415 226.328 128.528 226.47 128.587C226.612 128.645 226.772 128.646 226.915 128.588C227.623 128.29 228.282 127.888 228.87 127.395Z" fill="#C6B9AA"/>
<path d="M210.738 140.768C210.844 140.68 210.915 140.556 210.939 140.42C210.964 140.284 210.939 140.143 210.869 140.024C210.8 139.904 210.69 139.813 210.56 139.766C210.43 139.719 210.287 139.72 210.157 139.768C209.533 139.999 208.884 140.156 208.224 140.237C208.147 140.246 208.072 140.27 208.004 140.307C207.936 140.345 207.877 140.396 207.828 140.457C207.78 140.518 207.745 140.588 207.724 140.662C207.703 140.737 207.697 140.815 207.707 140.892C207.716 140.969 207.741 141.044 207.779 141.111C207.818 141.178 207.869 141.238 207.931 141.285C207.992 141.332 208.063 141.367 208.138 141.387C208.213 141.407 208.291 141.412 208.368 141.402C209.117 141.31 209.854 141.131 210.563 140.87C210.627 140.847 210.686 140.812 210.738 140.768Z" fill="#C6B9AA"/>
<path d="M215.74 123.266C215.826 123.194 215.889 123.099 215.922 122.992C215.955 122.886 215.958 122.772 215.928 122.664C215.899 122.556 215.84 122.458 215.757 122.383C215.674 122.308 215.572 122.258 215.462 122.239C214.786 122.122 214.103 122.058 213.418 122.047C213.339 122.044 213.261 122.056 213.187 122.083C213.113 122.11 213.046 122.152 212.989 122.205C212.931 122.259 212.885 122.324 212.854 122.396C212.822 122.467 212.805 122.545 212.803 122.623C212.802 122.702 212.817 122.78 212.846 122.853C212.876 122.926 212.919 122.992 212.975 123.047C213.03 123.103 213.096 123.147 213.169 123.177C213.242 123.206 213.32 123.221 213.398 123.22C214.023 123.23 214.647 123.289 215.262 123.396C215.347 123.41 215.433 123.406 215.516 123.384C215.598 123.361 215.675 123.321 215.74 123.266Z" fill="#C6B9AA"/>
<path d="M221.367 116.337C221.398 116.311 221.427 116.281 221.452 116.247C221.888 115.688 222.4 115.193 222.973 114.775C223.099 114.684 223.183 114.546 223.207 114.392C223.232 114.237 223.194 114.08 223.102 113.954C223.01 113.828 222.872 113.743 222.718 113.719C222.564 113.695 222.407 113.733 222.281 113.825C221.618 114.307 221.026 114.88 220.522 115.527C220.431 115.641 220.386 115.784 220.395 115.93C220.404 116.075 220.467 116.211 220.571 116.313C220.676 116.414 220.814 116.473 220.959 116.479C221.105 116.484 221.247 116.435 221.358 116.342L221.367 116.337Z" fill="#C6B9AA"/>
<path d="M241.841 147.964C241.887 147.925 241.927 147.88 241.96 147.829C242.587 146.841 243.387 145.973 244.32 145.265C244.382 145.219 244.433 145.16 244.472 145.094C244.511 145.027 244.536 144.954 244.547 144.877C244.557 144.801 244.553 144.723 244.533 144.648C244.513 144.574 244.479 144.504 244.433 144.442C244.386 144.381 244.328 144.329 244.261 144.29C244.195 144.251 244.121 144.226 244.045 144.216C243.968 144.205 243.891 144.21 243.816 144.229C243.741 144.249 243.671 144.283 243.61 144.329C242.564 145.121 241.669 146.094 240.967 147.201C240.893 147.319 240.863 147.46 240.883 147.598C240.903 147.736 240.972 147.863 241.077 147.955C241.182 148.047 241.317 148.098 241.456 148.1C241.596 148.102 241.731 148.054 241.839 147.965L241.841 147.964Z" fill="#C6B9AA"/>
<path d="M220.029 157.958C220.052 157.938 220.074 157.917 220.093 157.893C220.828 157.056 221.658 156.307 222.567 155.664C222.695 155.573 222.781 155.436 222.807 155.282C222.833 155.128 222.797 154.97 222.707 154.843C222.616 154.716 222.479 154.63 222.325 154.604C222.171 154.577 222.013 154.614 221.886 154.704C220.902 155.401 220.004 156.212 219.21 157.12C219.098 157.229 219.034 157.378 219.033 157.534C219.031 157.69 219.091 157.84 219.2 157.952C219.309 158.063 219.458 158.127 219.614 158.129C219.77 158.13 219.921 158.07 220.032 157.961L220.029 157.958Z" fill="#C6B9AA"/>
<path d="M213.893 150.944C214.004 150.849 214.077 150.715 214.095 150.57C214.113 150.424 214.076 150.277 213.991 150.157C213.906 150.038 213.779 149.954 213.636 149.924C213.492 149.893 213.342 149.917 213.216 149.991C212.866 150.199 212.468 150.308 212.061 150.309C211.984 150.309 211.908 150.324 211.837 150.354C211.766 150.383 211.701 150.427 211.647 150.481C211.592 150.536 211.549 150.6 211.52 150.672C211.49 150.743 211.475 150.819 211.476 150.896C211.476 150.973 211.491 151.049 211.52 151.121C211.55 151.192 211.593 151.256 211.648 151.311C211.702 151.365 211.767 151.408 211.838 151.438C211.91 151.467 211.986 151.482 212.063 151.482C212.68 151.481 213.285 151.314 213.815 151C213.842 150.983 213.868 150.964 213.893 150.944Z" fill="#C6B9AA"/>
<path d="M248.361 105.783C248.462 105.699 248.531 105.583 248.558 105.455C248.585 105.326 248.569 105.193 248.511 105.075C248.453 104.957 248.357 104.862 248.239 104.805C248.121 104.748 247.987 104.733 247.859 104.761C246.81 104.991 245.816 105.42 244.929 106.024C244.865 106.068 244.81 106.124 244.768 106.188C244.725 106.253 244.696 106.326 244.682 106.402C244.667 106.478 244.668 106.556 244.684 106.632C244.7 106.708 244.73 106.779 244.774 106.843C244.818 106.907 244.873 106.962 244.938 107.005C245.003 107.047 245.075 107.076 245.152 107.091C245.228 107.105 245.306 107.104 245.382 107.088C245.457 107.073 245.529 107.042 245.593 106.998C246.356 106.478 247.211 106.109 248.113 105.912C248.205 105.89 248.29 105.846 248.361 105.783Z" fill="#C6B9AA"/>
<path d="M258.645 107.959C258.873 107.769 259.089 107.576 259.31 107.372C259.424 107.266 259.491 107.119 259.497 106.964C259.503 106.808 259.446 106.656 259.34 106.542C259.234 106.428 259.087 106.361 258.931 106.355C258.776 106.35 258.624 106.406 258.51 106.512C257.996 106.99 257.452 107.434 256.88 107.841C256.818 107.886 256.764 107.943 256.723 108.009C256.682 108.074 256.655 108.147 256.642 108.223C256.629 108.3 256.632 108.378 256.649 108.453C256.667 108.528 256.699 108.599 256.744 108.662C256.789 108.725 256.846 108.778 256.911 108.819C256.977 108.86 257.05 108.888 257.126 108.9C257.202 108.913 257.28 108.911 257.355 108.893C257.431 108.876 257.502 108.844 257.564 108.799C257.934 108.533 258.296 108.253 258.645 107.959Z" fill="#C6B9AA"/>
<path d="M265.785 140.838L265.798 140.827C265.917 140.727 265.992 140.584 266.005 140.429C266.019 140.274 265.97 140.12 265.87 140.001C265.77 139.882 265.627 139.807 265.472 139.793C265.317 139.78 265.163 139.828 265.044 139.928L265.033 139.937C264.317 140.531 263.42 140.862 262.491 140.876C262.335 140.877 262.186 140.941 262.077 141.052C261.968 141.163 261.908 141.312 261.909 141.468C261.911 141.624 261.974 141.772 262.085 141.881C262.196 141.99 262.346 142.051 262.501 142.049C263.703 142.037 264.863 141.609 265.785 140.838Z" fill="#C6B9AA"/>
<path d="M235.961 128.181C236.081 128.083 236.158 127.941 236.174 127.786C236.19 127.631 236.144 127.476 236.045 127.356C235.947 127.235 235.805 127.158 235.65 127.142C235.495 127.126 235.341 127.173 235.22 127.271L233.432 128.684C233.372 128.732 233.321 128.791 233.284 128.858C233.246 128.925 233.222 128.999 233.213 129.076C233.204 129.152 233.211 129.23 233.232 129.304C233.253 129.378 233.288 129.448 233.336 129.508C233.384 129.568 233.443 129.619 233.51 129.656C233.578 129.694 233.652 129.718 233.728 129.727C233.805 129.736 233.882 129.73 233.956 129.709C234.031 129.688 234.1 129.652 234.16 129.604L235.948 128.193L235.961 128.181Z" fill="#C6B9AA"/>
<path d="M256.916 133.558C256.991 133.436 257.019 133.29 256.995 133.149C256.97 133.007 256.894 132.879 256.781 132.79C256.668 132.7 256.526 132.656 256.383 132.664C256.239 132.672 256.104 132.733 256.002 132.835C255.196 133.627 254.218 134.223 253.144 134.574C253.069 134.596 252.999 134.633 252.938 134.683C252.877 134.733 252.827 134.794 252.791 134.864C252.754 134.933 252.732 135.009 252.725 135.087C252.719 135.165 252.728 135.244 252.752 135.318C252.776 135.393 252.815 135.462 252.867 135.521C252.918 135.58 252.981 135.629 253.051 135.663C253.122 135.698 253.198 135.718 253.277 135.723C253.355 135.727 253.433 135.716 253.507 135.689C254.755 135.282 255.891 134.591 256.827 133.67C256.86 133.636 256.89 133.599 256.916 133.558Z" fill="#C6B9AA"/>
</g>
</g>
<defs>
<clipPath id="clip0_1_418">
<rect width="167.757" height="103.849" fill="white" transform="matrix(-0.766044 0.642788 0.642788 0.766044 297.551 36.0412)"/>
</clipPath>
</defs>
</svg>
